<?xml version="1.0" standalone="no"?>
<svg viewBox="0 0 200 200" xmlns="http://www.w3.org/2000/svg">
  <path fill="#FF0066" d="M33.2,-50.1C42.9,-45.4,50.5,-36,53.7,-25.5C56.9,-15.1,55.8,-3.6,58.7,11.7C61.6,27,68.5,46.2,61.8,53.2C55.2,60.3,35,55.3,19.7,53.8C4.4,52.3,-6.1,54.2,-17.3,53.4C-28.6,52.7,-40.7,49.2,-48.3,41.3C-55.9,33.4,-59,21.2,-59.6,9.3C-60.3,-2.7,-58.5,-14.3,-56.9,-29.4C-55.3,-44.5,-53.9,-63.1,-44.4,-67.9C-35,-72.6,-17.5,-63.6,-2.9,-59.1C11.8,-54.6,23.5,-54.8,33.2,-50.1Z" transform="translate(100 100)" />
</svg>
