<svg id="visual" viewBox="0 0 960 540" width="960" height="540" xmlns="http://www.w3.org/2000/svg" xmlns:xlink="http://www.w3.org/1999/xlink" version="1.1"><rect width="960" height="540" fill="#FFFFFF"></rect><g><g transform="translate(830 436)"><path d="M0 -138.3L119.8 -69.2L119.8 69.2L0 138.3L-119.8 69.2L-119.8 -69.2Z" fill="#D22D80"></path></g><g transform="translate(452 476)"><path d="M0 -71L61.5 -35.5L61.5 35.5L0 71L-61.5 35.5L-61.5 -35.5Z" fill="#D22D80"></path></g><g transform="translate(190 332)"><path d="M0 -128L110.9 -64L110.9 64L0 128L-110.9 64L-110.9 -64Z" fill="#D22D80"></path></g><g transform="translate(525 18)"><path d="M0 -35L30.3 -17.5L30.3 17.5L0 35L-30.3 17.5L-30.3 -17.5Z" fill="#D22D80"></path></g></g></svg>